<svg width="77" height="24" viewBox="0 0 77 24" fill="none" xmlns="http://www.w3.org/2000/svg">
<g clip-path="url(#clip0_4824_6344)">
<path d="M13.3247 2.23575C12.8454 2.21056 12.3651 2.21056 11.8857 2.23575C9.82984 2.21485 7.81554 2.81999 6.10627 3.97203C4.38721 5.17836 3.01248 6.81871 2.11962 8.72895C1.17488 10.6768 0.682767 12.8161 0.680655 14.9843C0.66243 16.489 0.901838 17.9856 1.38834 19.4083C1.83373 20.7079 2.65545 21.8429 3.74731 22.6667C5.03174 23.5638 6.57451 24.007 8.13498 23.9273C8.71222 23.9358 9.28891 23.888 9.85703 23.7846C10.4792 23.6733 11.0938 23.5223 11.697 23.3327C12.2422 23.1645 12.7777 22.966 13.3011 22.7381C13.6809 22.5809 14.0379 22.3729 14.3626 22.1197L13.7021 18.6709C13.3657 18.9128 13.0013 19.1124 12.617 19.2655C12.1291 19.4699 11.6238 19.6291 11.1073 19.7412C10.5653 19.8644 10.0116 19.9282 9.456 19.9315C8.69769 19.9716 7.94403 19.7899 7.28576 19.4083C6.7062 19.0256 6.27348 18.4551 6.05909 17.7909C5.76946 16.8849 5.63387 15.9359 5.65807 14.9843C5.64779 13.5499 5.85462 12.1222 6.2714 10.7506C6.60677 9.53048 7.25811 8.42225 8.15857 7.53972C8.59039 7.1313 9.09856 6.81369 9.65344 6.60542C10.2083 6.39715 10.7988 6.30241 11.3904 6.32671C12.1996 6.30629 13.0039 6.46036 13.7493 6.77861C14.3357 7.02922 14.8775 7.37468 15.3534 7.80135L16.7688 3.04443C16.0139 2.85415 15.377 2.66387 14.8344 2.52116C14.3393 2.38659 13.8345 2.29116 13.3247 2.23575Z" fill="white"/>
<path d="M33.9657 6.30294C34.4204 6.10995 34.9117 6.02061 35.4047 6.04131C36.1033 6.04802 36.7964 6.16849 37.457 6.39808C38.0173 6.56628 38.5331 6.85886 38.9667 7.25432L40.5236 3.35364C39.9212 2.95231 39.2488 2.66983 38.5421 2.52118C37.5637 2.26544 36.5569 2.13754 35.5462 2.14063C34.2416 2.12688 32.9484 2.38603 31.7483 2.90173C30.6837 3.34842 29.773 4.10117 29.1298 5.06614C28.4531 6.08336 28.1144 7.29103 28.1626 8.51491C28.156 9.2835 28.3086 10.045 28.6108 10.7507C28.9343 11.4569 29.3553 12.1136 29.8611 12.701C30.4235 13.3178 31.0393 13.8829 31.7011 14.3897C32.3899 14.8992 33.0368 15.464 33.6354 16.0784C34.0003 16.4662 34.2335 16.9609 34.3013 17.491C34.3692 18.0211 34.2682 18.5593 34.0129 19.0277C33.7908 19.3705 33.4696 19.6362 33.0929 19.7888C32.5738 19.9874 32.0198 20.0765 31.4652 20.0505C30.9792 20.0529 30.4951 19.9889 30.0262 19.8602C29.5326 19.7176 29.0513 19.5347 28.5873 19.3131C28.1693 19.1292 27.7736 18.8978 27.4078 18.6234L25.7801 22.6668C26.074 22.8638 26.3909 23.0236 26.7237 23.1425C27.2086 23.3196 27.7052 23.4627 28.2098 23.5706C28.7538 23.7059 29.3052 23.8092 29.8611 23.8798C30.3142 23.9489 30.7712 23.9886 31.2293 23.9987C32.6373 24.0201 34.037 23.7782 35.3575 23.2852C36.5041 22.8593 37.5037 22.1075 38.2354 21.1208C38.9733 20.0212 39.3451 18.7134 39.2969 17.3866C39.3072 16.6457 39.1456 15.9127 38.8251 15.246C38.4687 14.5506 38.016 13.91 37.4805 13.3432C36.8465 12.6941 36.1687 12.0901 35.4518 11.5356L34.1308 10.3939C33.7695 10.0641 33.4523 9.68836 33.1872 9.27602C32.9546 8.9137 32.8241 8.49438 32.8098 8.063C32.8175 7.70768 32.9237 7.36162 33.1165 7.06405C33.3164 6.72939 33.6126 6.46395 33.9657 6.30294Z" fill="white"/>
<path d="M56.8005 6.20781L57.3195 2.37848H44.6754L41.6559 23.6895H55.3379L55.8333 19.7888L47.0815 19.9315L47.86 14.5324L53.663 14.6514L54.1584 10.7982L48.3554 10.8934L49.0395 6.18402L56.8005 6.20781Z" fill="white"/>
<path d="M73.3132 2.37848H67.0855L56.8712 23.7846H62.2497L63.8773 19.7888H71.1193L71.4496 23.7846H76.3562L73.3132 2.37848ZM65.2219 16.3638L69.0435 6.84999L69.586 5.18506V6.84999L70.6475 16.3638H65.2219Z" fill="white"/>
<path d="M22.7606 0C22.2941 0 21.838 0.139494 21.45 0.400843C21.0621 0.662192 20.7598 1.03366 20.5812 1.46826C20.4027 1.90287 20.356 2.3811 20.447 2.84248C20.538 3.30386 20.7627 3.72766 21.0926 4.06029C21.4225 4.39293 21.8428 4.61945 22.3004 4.71123C22.758 4.803 23.2323 4.7559 23.6633 4.57588C24.0944 4.39586 24.4628 4.091 24.722 3.69987C24.9812 3.30873 25.1196 2.84888 25.1196 2.37846C25.1196 1.74766 24.871 1.14268 24.4286 0.696636C23.9863 0.250587 23.3862 0 22.7606 0V0Z" fill="white"/>
<path d="M20.0006 4.75693L17.1935 23.7846H22.1945L24.7893 5.51804C24.1867 5.91777 23.482 6.13259 22.7606 6.13644C22.2278 6.12772 21.7037 5.99939 21.2262 5.76076C20.7488 5.52212 20.3301 5.1792 20.0006 4.75693Z" fill="white"/>
</g>
<defs>
<clipPath id="clip0_4824_6344">
<rect width="75.68" height="24" fill="white" transform="translate(0.679688)"/>
</clipPath>
</defs>
</svg>
