<svg width="76" height="24" viewBox="0 0 76 24" fill="none" xmlns="http://www.w3.org/2000/svg">
<g clip-path="url(#clip0_4824_6336)">
<path d="M12.645 2.23575C12.1657 2.21056 11.6854 2.21056 11.206 2.23575C9.15015 2.21485 7.13586 2.81999 5.42659 3.97203C3.70752 5.17836 2.33279 6.81871 1.43994 8.72895C0.495193 10.6768 0.00307953 12.8161 0.000967438 14.9843C-0.017258 16.489 0.22215 17.9856 0.708657 19.4083C1.15404 20.7079 1.97576 21.8429 3.06762 22.6667C4.35206 23.5638 5.89482 24.007 7.4553 23.9273C8.03253 23.9358 8.60922 23.888 9.17734 23.7846C9.79951 23.6733 10.4141 23.5223 11.0173 23.3327C11.5625 23.1645 12.098 22.966 12.6214 22.7381C13.0012 22.5809 13.3582 22.3729 13.683 22.1197L13.0225 18.6709C12.686 18.9128 12.3216 19.1124 11.9373 19.2655C11.4494 19.4699 10.9441 19.6291 10.4276 19.7412C9.88557 19.8644 9.33193 19.9282 8.77631 19.9315C8.018 19.9716 7.26435 19.7899 6.60607 19.4083C6.02652 19.0256 5.59379 18.4551 5.37941 17.7909C5.08977 16.8849 4.95419 15.9359 4.97838 14.9843C4.96811 13.5499 5.17493 12.1222 5.59171 10.7506C5.92708 9.53048 6.57842 8.42225 7.47888 7.53972C7.9107 7.1313 8.41888 6.81369 8.97375 6.60542C9.52862 6.39715 10.1191 6.30241 10.7107 6.32671C11.5199 6.30629 12.3242 6.46036 13.0696 6.77861C13.656 7.02922 14.1978 7.37468 14.6737 7.80135L16.0891 3.04443C15.3342 2.85415 14.6973 2.66387 14.1548 2.52116C13.6596 2.38659 13.1549 2.29116 12.645 2.23575Z" fill="black"/>
<path d="M33.286 6.30294C33.7407 6.10995 34.2321 6.02061 34.725 6.04131C35.4237 6.04802 36.1167 6.16849 36.7773 6.39808C37.3376 6.56628 37.8535 6.85886 38.287 7.25432L39.8439 3.35364C39.2416 2.95231 38.5692 2.66983 37.8624 2.52118C36.8841 2.26544 35.8772 2.13754 34.8665 2.14063C33.562 2.12688 32.2688 2.38603 31.0686 2.90173C30.004 3.34842 29.0933 4.10117 28.4501 5.06614C27.7734 6.08336 27.4348 7.29103 27.483 8.51491C27.4763 9.2835 27.629 10.045 27.9312 10.7507C28.2547 11.4569 28.6756 12.1136 29.1814 12.701C29.7439 13.3178 30.3596 13.8829 31.0214 14.3897C31.7102 14.8992 32.3571 15.464 32.9557 16.0784C33.3206 16.4662 33.5538 16.9609 33.6216 17.491C33.6895 18.0211 33.5885 18.5593 33.3332 19.0277C33.1111 19.3705 32.7899 19.6362 32.4132 19.7888C31.8941 19.9874 31.3401 20.0765 30.7855 20.0505C30.2995 20.0529 29.8155 19.9889 29.3465 19.8602C28.8529 19.7176 28.3717 19.5347 27.9076 19.3131C27.4897 19.1292 27.0939 18.8978 26.7281 18.6234L25.1004 22.6668C25.3943 22.8638 25.7113 23.0236 26.044 23.1425C26.529 23.3196 27.0255 23.4627 27.5301 23.5706C28.0741 23.7059 28.6255 23.8092 29.1814 23.8798C29.6345 23.9489 30.0915 23.9886 30.5496 23.9987C31.9576 24.0201 33.3573 23.7782 34.6778 23.2852C35.8244 22.8593 36.824 22.1075 37.5557 21.1208C38.2936 20.0212 38.6654 18.7134 38.6173 17.3866C38.6275 16.6457 38.4659 15.9127 38.1455 15.246C37.789 14.5506 37.3363 13.91 36.8009 13.3432C36.1668 12.6941 35.489 12.0901 34.7721 11.5356L33.4511 10.3939C33.0898 10.0641 32.7726 9.68836 32.5075 9.27602C32.2749 8.9137 32.1444 8.49438 32.1301 8.063C32.1378 7.70768 32.244 7.36162 32.4368 7.06405C32.6368 6.72939 32.9329 6.46395 33.286 6.30294Z" fill="black"/>
<path d="M56.1208 6.20781L56.6398 2.37848H43.9957L40.9762 23.6895H54.6582L55.1536 19.7888L46.4018 19.9315L47.1803 14.5324L52.9834 14.6514L53.4787 10.7982L47.6757 10.8934L48.3598 6.18402L56.1208 6.20781Z" fill="black"/>
<path d="M72.6335 2.37848H66.4058L56.1915 23.7846H61.57L63.1976 19.7888H70.4396L70.7699 23.7846H75.6765L72.6335 2.37848ZM64.5422 16.3638L68.3638 6.84999L68.9063 5.18506V6.84999L69.9679 16.3638H64.5422Z" fill="black"/>
<path d="M22.0809 0C21.6144 0 21.1583 0.139494 20.7704 0.400843C20.3824 0.662192 20.0801 1.03366 19.9015 1.46826C19.723 1.90287 19.6763 2.3811 19.7673 2.84248C19.8583 3.30386 20.083 3.72766 20.4129 4.06029C20.7428 4.39293 21.1631 4.61945 21.6207 4.71123C22.0783 4.803 22.5526 4.7559 22.9837 4.57588C23.4147 4.39586 23.7831 4.091 24.0423 3.69987C24.3015 3.30873 24.4399 2.84888 24.4399 2.37846C24.4399 1.74766 24.1914 1.14268 23.749 0.696636C23.3066 0.250587 22.7066 0 22.0809 0V0Z" fill="black"/>
<path d="M19.321 4.75693L16.5138 23.7846H21.5148L24.1097 5.51804C23.507 5.91777 22.8023 6.13259 22.0809 6.13644C21.5481 6.12772 21.024 5.99939 20.5465 5.76076C20.0691 5.52212 19.6504 5.1792 19.321 4.75693Z" fill="black"/>
</g>
<defs>
<clipPath id="clip0_4824_6336">
<rect width="75.68" height="24" fill="white"/>
</clipPath>
</defs>
</svg>
